<!--?xml version="1.0" standalone="no"?-->
              <svg id="sw-js-blob-svg" viewBox="0 0 100 100" xmlns="http://www.w3.org/2000/svg" version="1.1">
                    <defs> 
                        <linearGradient id="sw-gradient" x1="0" x2="1" y1="1" y2="0">
                            <stop id="stop1" stop-color="rgba(65, 105, 225, 1)" offset="0%"></stop>
                            <stop id="stop2" stop-color="rgba(174, 198, 207, 1)" offset="100%"></stop>
                        </linearGradient>
                    </defs>
                <path fill="url(#sw-gradient)" d="M21.7,-33.7C25.6,-31.2,24.7,-21,27.1,-13.1C29.5,-5.2,35.2,0.3,37.2,7.3C39.2,14.2,37.4,22.6,31.6,25.1C25.8,27.5,16,24.2,9.4,21.2C2.8,18.1,-0.4,15.4,-6.4,16.2C-12.3,17,-20.9,21.3,-27.9,20.2C-34.9,19.2,-40.4,12.9,-42.8,5.3C-45.3,-2.3,-44.8,-11.3,-39.3,-15.8C-33.9,-20.3,-23.5,-20.3,-16.1,-21.2C-8.7,-22.2,-4.4,-23.9,2.3,-27.4C8.9,-30.9,17.7,-36.2,21.7,-33.7Z" width="100%" height="100%" transform="translate(50 50)" stroke-width="0" style="transition: all 0.3s ease 0s;"></path>
              </svg>